<?xml version="1.0" encoding="iso-8859-1"?>
<!-- Uploaded to: SVG Repo, www.svgrepo.com, Generator: SVG Repo Mixer Tools -->
<svg height="800px" width="800px" version="1.1" id="Layer_1" xmlns="http://www.w3.org/2000/svg" xmlns:xlink="http://www.w3.org/1999/xlink" 
	 viewBox="0 0 512 512" xml:space="preserve">
<path style="fill:#65C6BB;" d="M494.14,411.763H17.86c-9.864,0-17.86-7.997-17.86-17.86V118.097c0-9.864,7.997-17.86,17.86-17.86
	H494.14c9.864,0,17.86,7.997,17.86,17.86v275.805C512,403.767,504.003,411.763,494.14,411.763z"/>
<g>
	<path style="fill:#20B8AE;" d="M494.14,100.238H256v311.526h238.14c9.864,0,17.86-7.997,17.86-17.86V118.098
		C512,108.233,504.003,100.238,494.14,100.238z"/>
	<path style="fill:#20B8AE;" d="M256,315.054c-32.562,0-59.054-26.492-59.054-59.054s26.492-59.054,59.054-59.054
		s59.054,26.492,59.054,59.054S288.562,315.054,256,315.054z"/>
	<path style="fill:#20B8AE;" d="M403.045,367.585h-294.09c-9.864,0-17.86-7.997-17.86-17.86c0-16.022-13.035-29.055-29.055-29.055
		c-9.864,0-17.86-7.997-17.86-17.86v-93.617c0-9.864,7.997-17.86,17.86-17.86c16.022,0,29.055-13.035,29.055-29.055
		c0-9.864,7.997-17.86,17.86-17.86h294.09c9.864,0,17.86,7.997,17.86,17.86c0,16.022,13.035,29.055,29.055,29.055
		c9.864,0,17.86,7.997,17.86,17.86v93.617c0,9.864-7.997,17.86-17.86,17.86c-16.022,0-29.055,13.035-29.055,29.055
		C420.906,359.59,412.909,367.585,403.045,367.585z M124.311,331.864h263.376c6.143-21.383,23.03-38.27,44.413-44.413v-62.905
		c-21.383-6.143-38.27-23.03-44.413-44.413H124.311c-6.143,21.383-23.03,38.27-44.413,44.413v62.905
		C101.282,293.595,118.168,310.482,124.311,331.864z"/>
</g>
<g>
	<path style="fill:#1DA49C;" d="M256,196.946v118.108c32.562,0,59.054-26.492,59.054-59.054S288.562,196.946,256,196.946z"/>
	<path style="fill:#1DA49C;" d="M449.961,191.331c-16.022,0-29.055-13.035-29.055-29.055c0-9.864-7.997-17.86-17.86-17.86H256
		v35.721h131.689c6.143,21.383,23.03,38.27,44.413,44.413v62.905c-21.383,6.143-38.27,23.029-44.413,44.413H256v35.721h147.045
		c9.864,0,17.86-7.997,17.86-17.86c0-16.022,13.035-29.055,29.055-29.055c9.864,0,17.86-7.997,17.86-17.86v-93.617
		C467.822,199.328,459.826,191.331,449.961,191.331z"/>
</g>
</svg>