<?xml version="1.0" encoding="iso-8859-1"?>
<!-- Uploaded to: SVG Repo, www.svgrepo.com, Generator: SVG Repo Mixer Tools -->
<svg height="800px" width="800px" version="1.1" id="Layer_1" xmlns="http://www.w3.org/2000/svg" xmlns:xlink="http://www.w3.org/1999/xlink" 
	 viewBox="0 0 512 512" xml:space="preserve">
<path style="fill:#709936;" d="M461.913,72.348H50.087C22.468,72.348,0,94.816,0,122.435v66.783c0,9.223,7.479,16.696,16.696,16.696
	h478.609c9.217,0,16.696-7.473,16.696-16.696v-66.783C512,94.816,489.532,72.348,461.913,72.348z"/>
<path style="fill:#608033;" d="M461.913,72.348H256v133.565h239.304c9.217,0,16.696-7.473,16.696-16.696v-66.783
	C512,94.816,489.532,72.348,461.913,72.348z"/>
<path style="fill:#7FB335;" d="M461.913,105.739H50.087C22.468,105.739,0,128.207,0,155.826v66.783
	c0,9.223,7.479,16.696,16.696,16.696h478.609c9.217,0,16.696-7.473,16.696-16.696v-66.783
	C512,128.207,489.532,105.739,461.913,105.739z"/>
<path style="fill:#709936;" d="M461.913,105.739H256v133.565h239.304c9.217,0,16.696-7.473,16.696-16.696v-66.783
	C512,128.207,489.532,105.739,461.913,105.739z"/>
<path style="fill:#88CC2A;" d="M461.913,439.652H50.087C22.468,439.652,0,417.184,0,389.565V189.217
	c0-27.619,22.468-50.087,50.087-50.087h411.826c27.619,0,50.087,22.468,50.087,50.087v200.348
	C512,417.184,489.532,439.652,461.913,439.652z"/>
<path style="fill:#7FB335;" d="M461.913,139.13H256v300.522h205.913c27.619,0,50.087-22.468,50.087-50.087V189.217
	C512,161.598,489.532,139.13,461.913,139.13z"/>
<path style="fill:#FFFFFF;" d="M122.435,406.261H50.087c-9.217,0-16.696-7.473-16.696-16.696V189.217
	c0-9.223,7.479-16.696,16.696-16.696h72.348c9.217,0,16.696,7.473,16.696,16.696s-7.479,16.696-16.696,16.696H66.783V372.87h55.652
	c9.217,0,16.696,7.473,16.696,16.696C139.13,398.788,131.652,406.261,122.435,406.261z"/>
<path style="fill:#C4E2FF;" d="M461.913,406.261h-72.348c-9.217,0-16.696-7.473-16.696-16.696c0-9.223,7.479-16.696,16.696-16.696
	h55.652V205.913h-55.652c-9.217,0-16.696-7.473-16.696-16.696s7.479-16.696,16.696-16.696h72.348
	c9.217,0,16.696,7.473,16.696,16.696v200.348C478.609,398.788,471.13,406.261,461.913,406.261z"/>
<path style="fill:#FFFFFF;" d="M263.791,274.588c-1.336-0.668-2.783-1.447-4.23-2.226c-1.18-0.634-2.371-1.28-3.562-1.937
	c-8.481-4.719-16.696-10.129-16.696-14.425c0-9.238,7.457-16.696,16.696-16.696s16.696,7.457,16.696,16.696
	c0,9.238,7.457,16.696,16.696,16.696c9.238,0,16.696-7.457,16.696-16.696c0-21.751-13.965-40.314-33.391-47.212v-19.571
	c0-9.22-7.475-16.696-16.696-16.696s-16.696,7.475-16.696,16.696v19.571c-19.426,6.898-33.391,25.46-33.391,47.212
	c0,25.823,23.485,38.177,42.296,48.195c2.449,1.336,5.12,2.671,7.791,4.23c7.903,4.341,15.583,9.35,16.584,13.468
	c0.111,0.223,0.111,0.557,0.111,0.89c0,9.238-7.457,16.696-16.696,16.696s-16.696-7.457-16.696-16.696s-7.457-16.696-16.696-16.696
	s-16.696,7.457-16.696,16.696c0,21.751,13.965,40.314,33.391,47.212v19.571c0,9.22,7.475,16.696,16.696,16.696
	s16.696-7.475,16.696-16.696v-19.571c19.426-6.898,33.391-25.46,33.391-47.212C306.087,296.96,282.602,284.605,263.791,274.588z"/>
<g>
	<path style="fill:#C4E2FF;" d="M272.696,256c0,9.238,7.457,16.696,16.696,16.696c9.238,0,16.696-7.457,16.696-16.696
		c0-21.751-13.965-40.314-33.391-47.212v-19.571c0-9.22-7.475-16.696-16.696-16.696v66.783
		C265.238,239.304,272.696,246.762,272.696,256z"/>
	<path style="fill:#C4E2FF;" d="M272.696,389.565v-19.571c19.426-6.898,33.391-25.46,33.391-47.212
		c0-25.823-23.485-38.177-42.296-48.195c-1.336-0.668-2.783-1.447-4.23-2.226c-1.18-0.634-2.371-1.28-3.562-1.937v37.999
		c7.903,4.341,15.583,9.35,16.584,13.468c0.111,0.223,0.111,0.557,0.111,0.89c0,9.238-7.457,16.696-16.696,16.696v66.783
		C265.22,406.261,272.696,398.786,272.696,389.565z"/>
</g>
</svg>